<?xml version="1.0" standalone="no"?>
<!DOCTYPE svg PUBLIC "-//W3C//DTD SVG 20010904//EN"
 "http://www.w3.org/TR/2001/REC-SVG-20010904/DTD/svg10.dtd">
<svg version="1.0" xmlns="http://www.w3.org/2000/svg"
 width="562.000000pt" height="374.000000pt" viewBox="0 0 562.000000 374.000000"
 preserveAspectRatio="xMidYMid meet">
<metadata>
Created by potrace 1.16, written by Peter Selinger 2001-2019
</metadata>
<g transform="translate(0.000000,374.000000) scale(0.100000,-0.100000)"
fill="#000000" stroke="none">
<path d="M3555 3650 c-60 -6 -102 -16 -249 -58 -35 -10 -170 -84 -232 -128
-75 -53 -197 -180 -250 -260 -149 -222 -206 -500 -155 -754 38 -191 107 -334
232 -484 101 -120 265 -232 426 -290 217 -77 410 -85 612 -25 35 10 68 19 72
19 17 0 184 82 228 112 78 53 191 158 243 227 61 81 150 261 177 358 10 39 22
101 26 137 l7 66 -60 0 -60 0 -18 -51 c-10 -28 -35 -69 -56 -91 -32 -35 -38
-48 -38 -86 0 -86 -29 -151 -96 -219 -47 -47 -73 -65 -108 -75 -25 -7 -46 -18
-46 -25 0 -32 -53 -114 -100 -156 -61 -55 -109 -71 -205 -70 -78 0 -149 29
-194 77 -14 14 -29 26 -35 26 -6 0 -30 -18 -53 -39 -68 -62 -216 -84 -306 -46
-59 24 -127 93 -158 159 -25 53 -34 62 -88 88 -112 53 -181 163 -181 286 0 33
-7 49 -41 88 -23 27 -50 68 -60 92 -40 94 -14 229 60 313 35 40 39 50 43 114
3 42 13 86 25 110 33 63 104 130 161 150 47 17 53 23 72 70 30 73 106 148 178
175 107 41 235 16 306 -59 17 -17 35 -31 40 -31 6 0 24 14 40 30 56 57 102 74
201 74 82 1 95 -2 143 -29 65 -35 96 -71 134 -151 25 -53 34 -63 67 -74 113
-37 193 -148 199 -277 3 -40 8 -73 13 -73 14 0 87 -110 94 -141 6 -28 8 -29
67 -29 l60 0 -7 58 c-37 312 -202 567 -487 755 -31 20 -59 37 -62 37 -3 0 -29
11 -57 24 -66 32 -195 64 -311 76 -101 11 -109 11 -213 0z"/>
<path d="M3333 3328 c-31 -23 -63 -66 -63 -87 0 -6 20 -20 43 -31 88 -42 161
-136 174 -225 l6 -45 -61 0 c-62 0 -72 7 -72 50 0 24 -54 86 -91 106 -44 22
-135 18 -172 -8 -39 -27 -54 -45 -68 -78 -12 -27 -14 -120 -3 -152 4 -15 -7
-32 -49 -71 -90 -85 -105 -136 -66 -228 17 -38 32 -56 65 -75 48 -28 63 -59
44 -94 -14 -26 -5 -100 16 -141 19 -38 69 -77 114 -89 87 -23 172 28 209 126
l19 49 56 3 56 3 0 -39 c0 -51 -51 -152 -97 -193 -21 -17 -56 -40 -80 -51 -24
-10 -43 -25 -43 -33 0 -30 59 -81 113 -100 53 -18 57 -18 100 -1 60 23 91 48
111 90 14 29 16 78 16 335 0 166 -3 301 -7 301 -4 0 -53 -45 -108 -100 l-102
-100 -132 0 -132 0 3 63 3 62 110 3 110 3 128 127 127 127 0 187 c0 214 -8
249 -68 295 -31 23 -48 28 -107 30 -59 2 -75 -1 -102 -19z"/>
<path d="M3807 3319 c-64 -53 -67 -65 -67 -291 l0 -203 47 -97 c27 -54 50 -98
53 -98 3 0 21 46 39 103 35 109 61 147 97 147 36 0 50 -22 95 -157 l42 -127
18 25 c65 87 47 79 185 79 73 0 124 4 124 10 0 15 -61 80 -76 80 -7 0 -21 11
-30 24 -13 21 -14 33 -4 81 11 51 10 59 -13 108 -36 79 -74 102 -164 102 -71
0 -73 -1 -113 -40 -26 -25 -45 -56 -53 -82 l-11 -43 -58 0 -58 0 0 38 c1 82
79 189 169 232 28 13 51 29 51 36 0 19 -49 73 -81 89 -16 9 -55 15 -91 15 -56
0 -68 -4 -101 -31z"/>
<path d="M1155 2931 c-11 -4 -33 -7 -50 -6 -35 3 -149 -36 -201 -68 -137 -84
-254 -225 -314 -377 -55 -137 -64 -188 -64 -340 0 -225 35 -343 216 -720 36
-74 71 -151 78 -170 7 -19 17 -39 22 -44 4 -6 8 -16 8 -24 0 -8 6 -28 14 -45
28 -64 46 -159 46 -237 0 -172 -93 -354 -194 -381 -77 -21 -143 11 -177 85
-23 50 -25 174 -5 260 13 54 14 92 2 103 -4 5 -279 -15 -313 -22 -32 -7 -40
-28 -58 -161 -20 -138 -16 -293 8 -369 52 -163 181 -234 422 -235 95 0 124 4
206 30 53 16 112 42 131 57 104 80 128 103 165 153 62 86 89 137 128 245 48
136 65 222 65 338 0 183 -46 332 -215 694 -58 124 -105 232 -105 240 0 7 -7
24 -15 36 -8 12 -24 63 -36 112 -40 169 -7 353 81 447 52 56 94 69 151 45 54
-22 69 -64 69 -189 0 -57 -4 -119 -10 -138 -5 -19 -6 -38 -2 -42 8 -8 168 4
217 16 11 2 45 7 76 11 31 4 62 11 69 15 26 16 39 270 20 387 -20 121 -87 208
-200 261 -30 14 -75 27 -100 28 -25 2 -61 5 -80 8 -19 3 -44 1 -55 -3z"/>
<path d="M1998 2920 c-73 -39 -68 10 -68 -736 l0 -671 38 -49 c20 -27 80 -101
132 -165 52 -64 140 -171 195 -239 55 -68 116 -141 135 -163 l35 -40 3 -343 3
-344 294 0 295 0 0 503 0 502 -338 338 c-335 334 -338 337 -379 337 -56 0 -99
-36 -108 -89 -4 -24 -2 -49 5 -63 7 -13 85 -96 174 -186 l161 -163 -44 -41
-43 -41 -178 178 c-130 130 -181 187 -190 215 -19 57 -9 163 18 199 22 30 22
31 22 510 0 271 -4 490 -9 504 -9 22 -82 68 -107 67 -5 -1 -26 -10 -46 -20z"/>
<path d="M5252 2923 c-19 -9 -41 -32 -53 -54 -18 -36 -19 -63 -19 -505 0 -435
1 -468 18 -492 47 -69 54 -158 19 -232 -9 -19 -93 -111 -186 -204 l-169 -168
-42 41 -43 42 166 168 167 168 0 52 c0 43 -4 56 -27 77 -34 31 -64 39 -105 25
-23 -8 -136 -114 -366 -344 l-332 -332 2 -495 3 -495 291 -3 291 -2 7 46 c3
26 6 179 6 340 l0 293 83 102 c45 56 93 116 107 133 14 17 61 74 105 127 150
180 230 280 237 300 4 10 6 320 5 688 -2 653 -2 669 -22 691 -20 23 -74 50
-97 50 -7 0 -28 -8 -46 -17z"/>
<path d="M4711 2686 c-7 -8 -11 -34 -9 -58 l3 -43 118 -3 118 -3 -3 58 -3 58
-106 3 c-83 2 -109 0 -118 -12z"/>
<path d="M3967 2593 c-2 -4 -14 -39 -27 -78 -29 -91 -45 -115 -74 -115 -42 0
-56 11 -82 61 -13 27 -29 49 -34 49 -6 0 -10 -86 -10 -230 0 -265 6 -288 82
-336 61 -39 104 -41 165 -10 43 21 93 75 93 99 0 3 -24 18 -52 32 -63 32 -101
66 -132 120 -28 49 -50 135 -38 147 5 5 33 8 63 6 51 -3 54 -4 60 -34 29 -147
224 -196 312 -80 34 44 44 89 39 166 -4 64 -3 65 26 83 32 18 82 72 82 88 0 5
-44 9 -97 9 l-98 -1 -55 -82 c-46 -69 -60 -82 -85 -85 -41 -4 -65 25 -95 113
-24 73 -35 92 -43 78z"/>
</g>
</svg>
